solid Exported from Blender-2.92.0
facet normal 0.816616 -0.577182 -0.000193
outer loop
vertex 0.672507 -0.588816 1.983036
vertex 0.945173 -0.203039 1.982517
vertex 0.941827 -0.212533 16.232664
endloop
endfacet
facet normal 0.266069 -0.963738 0.020420
outer loop
vertex 0.941827 -0.212533 16.232664
vertex 0.246238 -0.402564 16.327408
vertex 0.672507 -0.588816 1.983036
endloop
endfacet
facet normal 0.258083 -0.965243 -0.041228
outer loop
vertex 0.941827 -0.212533 16.232664
vertex 2.016945 -0.611230 32.297043
vertex 0.246238 -0.402564 16.327408
endloop
endfacet
facet normal -0.351160 -0.935935 0.026707
outer loop
vertex 1.462834 -0.403398 32.294640
vertex 0.246238 -0.402564 16.327408
vertex 2.016945 -0.611230 32.297043
endloop
endfacet
facet normal 0.018918 -0.999729 0.013543
outer loop
vertex 0.672507 -0.588816 1.983036
vertex 0.246238 -0.402564 16.327408
vertex -0.102202 -0.603454 1.984671
endloop
endfacet
facet normal -0.644790 -0.762782 0.049089
outer loop
vertex 1.462834 -0.403398 32.294640
vertex -0.804147 0.456905 15.885569
vertex 0.246238 -0.402564 16.327408
endloop
endfacet
facet normal -0.956896 -0.286473 -0.047791
outer loop
vertex -0.378108 0.318520 1.982431
vertex -0.102202 -0.603454 1.984671
vertex -0.471961 0.350123 3.672153
endloop
endfacet
facet normal -0.638550 -0.769276 0.021625
outer loop
vertex -0.425400 -0.141357 5.787296
vertex 0.246238 -0.402564 16.327408
vertex -0.804147 0.456905 15.885569
endloop
endfacet
facet normal -0.701045 -0.712605 0.027012
outer loop
vertex -0.102202 -0.603454 1.984671
vertex 0.246238 -0.402564 16.327408
vertex -0.425400 -0.141357 5.787296
endloop
endfacet
facet normal -0.956178 -0.289127 -0.046134
outer loop
vertex -0.471961 0.350123 3.672153
vertex -0.102202 -0.603454 1.984671
vertex -0.425400 -0.141357 5.787296
endloop
endfacet
facet normal -0.669150 -0.742887 0.018914
outer loop
vertex -0.804147 0.456905 15.885569
vertex -1.420558 0.779894 6.764097
vertex -0.425400 -0.141357 5.787296
endloop
endfacet
facet normal -0.741713 -0.656728 -0.136272
outer loop
vertex -1.420558 0.779894 6.764097
vertex -0.471961 0.350123 3.672153
vertex -0.425400 -0.141357 5.787296
endloop
endfacet
facet normal -0.391528 -0.610180 -0.688757
outer loop
vertex 13.304610 -0.174589 -7.952969
vertex 1.601014 -0.584980 -0.936416
vertex 1.453591 -0.202603 -1.191366
endloop
endfacet
facet normal -0.238513 -0.861512 -0.448228
outer loop
vertex 1.601014 -0.584980 -0.936416
vertex 13.304610 -0.174589 -7.952969
vertex 14.162511 -0.459647 -7.861587
endloop
endfacet
facet normal -0.262460 -0.900793 -0.345957
outer loop
vertex 13.304610 -0.174589 -7.952969
vertex 27.183350 -0.632030 -17.290989
vertex 14.162511 -0.459647 -7.861587
endloop
endfacet
facet normal 0.223094 -0.919071 0.324867
outer loop
vertex 27.450586 -0.397802 -16.811863
vertex 14.162511 -0.459647 -7.861587
vertex 27.183350 -0.632030 -17.290989
endloop
endfacet
facet normal -0.023610 -0.997865 -0.060886
outer loop
vertex 1.601014 -0.584980 -0.936416
vertex 14.162511 -0.459647 -7.861587
vertex 1.949336 -0.629941 -0.334634
endloop
endfacet
facet normal 0.361900 -0.765504 0.532007
outer loop
vertex 27.450586 -0.397802 -16.811863
vertex 14.476684 0.465257 -6.744461
vertex 14.162511 -0.459647 -7.861587
endloop
endfacet
facet normal 0.411117 -0.371666 0.832375
outer loop
vertex 1.949336 -0.629941 -0.334634
vertex 3.838406 0.364599 -0.823587
vertex 2.142105 0.336155 0.001529
endloop
endfacet
facet normal 0.342511 -0.768730 0.540130
outer loop
vertex 6.141780 -0.239734 -2.462442
vertex 14.162511 -0.459647 -7.861587
vertex 14.476684 0.465257 -6.744461
endloop
endfacet
facet normal 0.350180 -0.757432 0.551063
outer loop
vertex 1.949336 -0.629941 -0.334634
vertex 14.162511 -0.459647 -7.861587
vertex 6.141780 -0.239734 -2.462442
endloop
endfacet
facet normal 0.437496 -0.447557 0.779929
outer loop
vertex 6.141780 -0.239734 -2.462442
vertex 3.838406 0.364599 -0.823587
vertex 1.949336 -0.629941 -0.334634
endloop
endfacet
facet normal 0.336422 -0.780937 0.526268
outer loop
vertex 14.476684 0.465257 -6.744461
vertex 6.821239 0.714493 -1.480801
vertex 6.141780 -0.239734 -2.462442
endloop
endfacet
facet normal 0.221886 -0.771461 0.596335
outer loop
vertex 6.821239 0.714493 -1.480801
vertex 3.838406 0.364599 -0.823587
vertex 6.141780 -0.239734 -2.462442
endloop
endfacet
facet normal -0.488800 -0.161143 -0.857384
outer loop
vertex 1.453591 -0.202603 -1.191366
vertex 1.421815 0.192492 -1.247506
vertex 13.304610 -0.174589 -7.952969
endloop
endfacet
facet normal -0.487975 0.080404 -0.869146
outer loop
vertex 13.277669 0.181080 -7.904940
vertex 13.304610 -0.174589 -7.952969
vertex 1.421815 0.192492 -1.247506
endloop
endfacet
facet normal -0.555286 0.069848 -0.828721
outer loop
vertex 13.277669 0.181080 -7.904940
vertex 27.183350 -0.632030 -17.290989
vertex 13.304610 -0.174589 -7.952969
endloop
endfacet
facet normal -0.382170 0.623933 -0.681655
outer loop
vertex 1.652296 0.767043 -0.850827
vertex 13.277669 0.181080 -7.904940
vertex 1.421815 0.192492 -1.247506
endloop
endfacet
facet normal -0.271770 0.836892 -0.475134
outer loop
vertex 13.153931 0.495858 -7.279720
vertex 27.183350 -0.632030 -17.290989
vertex 13.277669 0.181080 -7.904940
endloop
endfacet
facet normal -0.245141 0.845579 -0.474239
outer loop
vertex 13.153931 0.495858 -7.279720
vertex 13.277669 0.181080 -7.904940
vertex 1.652296 0.767043 -0.850827
endloop
endfacet
facet normal -0.176580 0.919556 -0.351051
outer loop
vertex 13.153931 0.495858 -7.279720
vertex 27.450586 -0.397802 -16.811863
vertex 27.183350 -0.632030 -17.290989
endloop
endfacet
facet normal 0.037952 0.998605 -0.036699
outer loop
vertex 14.476684 0.465257 -6.744461
vertex 27.450586 -0.397802 -16.811863
vertex 13.153931 0.495858 -7.279720
endloop
endfacet
facet normal 0.023507 0.999723 -0.000936
outer loop
vertex 13.153931 0.495858 -7.279720
vertex 5.640994 0.677361 -2.101266
vertex 14.476684 0.465257 -6.744461
endloop
endfacet
facet normal 0.021082 0.999768 -0.004455
outer loop
vertex 5.640994 0.677361 -2.101266
vertex 13.153931 0.495858 -7.279720
vertex 1.652296 0.767043 -0.850827
endloop
endfacet
facet normal -0.003717 0.998604 -0.052691
outer loop
vertex 6.821239 0.714493 -1.480801
vertex 14.476684 0.465257 -6.744461
vertex 5.640994 0.677361 -2.101266
endloop
endfacet
facet normal -0.090969 0.989326 0.113834
outer loop
vertex 5.640994 0.677361 -2.101266
vertex 3.838406 0.364599 -0.823587
vertex 6.821239 0.714493 -1.480801
endloop
endfacet
facet normal 0.157411 0.884760 0.438660
outer loop
vertex 3.838406 0.364599 -0.823587
vertex 5.640994 0.677361 -2.101266
vertex 1.652296 0.767043 -0.850827
endloop
endfacet
facet normal 0.163871 0.915096 0.368436
outer loop
vertex 2.142105 0.336155 0.001529
vertex 3.838406 0.364599 -0.823587
vertex 1.652296 0.767043 -0.850827
endloop
endfacet
facet normal 0.372775 -0.558581 -0.740963
outer loop
vertex -2.214607 0.350445 -2.019870
vertex -0.787102 0.334054 -1.289341
vertex -1.161571 -0.746896 -0.662852
endloop
endfacet
facet normal 0.722020 -0.143994 -0.676722
outer loop
vertex -1.161571 -0.746896 -0.662852
vertex -4.446582 0.727652 -4.481509
vertex -2.214607 0.350445 -2.019870
endloop
endfacet
facet normal 0.295469 -0.777917 -0.554565
outer loop
vertex -13.173808 0.372771 -8.633511
vertex -4.446582 0.727652 -4.481509
vertex -1.161571 -0.746896 -0.662852
endloop
endfacet
facet normal 0.429151 -0.165899 -0.887866
outer loop
vertex -12.988715 0.477819 -8.563674
vertex -4.446582 0.727652 -4.481509
vertex -13.173808 0.372771 -8.633511
endloop
endfacet
facet normal 0.381629 -0.059190 -0.922418
outer loop
vertex -13.173808 0.372771 -8.633511
vertex -28.087980 -0.482204 -14.749063
vertex -12.988715 0.477819 -8.563674
endloop
endfacet
facet normal 0.276737 -0.801778 -0.529687
outer loop
vertex -13.325953 -0.477712 -7.425637
vertex -13.173808 0.372771 -8.633511
vertex -1.161571 -0.746896 -0.662852
endloop
endfacet
facet normal 0.264524 -0.803892 -0.532714
outer loop
vertex -28.087980 -0.482204 -14.749063
vertex -13.173808 0.372771 -8.633511
vertex -13.325953 -0.477712 -7.425637
endloop
endfacet
facet normal -0.296223 -0.813516 0.500443
outer loop
vertex -1.528783 -0.211892 -0.010514
vertex -13.325953 -0.477712 -7.425637
vertex -1.161571 -0.746896 -0.662852
endloop
endfacet
facet normal 0.101758 -0.973559 -0.204519
outer loop
vertex -28.087980 -0.482204 -14.749063
vertex -13.325953 -0.477712 -7.425637
vertex -28.188202 -0.583585 -14.316330
endloop
endfacet
facet normal -0.246216 -0.872046 0.422981
outer loop
vertex -13.325953 -0.477712 -7.425637
vertex -1.528783 -0.211892 -0.010514
vertex -13.829163 -0.191415 -7.128304
endloop
endfacet
facet normal -0.211152 -0.857802 0.468605
outer loop
vertex -13.829163 -0.191415 -7.128304
vertex -28.188202 -0.583585 -14.316330
vertex -13.325953 -0.477712 -7.425637
endloop
endfacet
facet normal -0.506382 0.861174 -0.044233
outer loop
vertex -0.378108 0.318520 1.982431
vertex -0.471961 0.350123 3.672153
vertex 0.454913 0.808456 1.984537
endloop
endfacet
facet normal -0.505671 0.861618 -0.043722
outer loop
vertex -0.058124 0.693032 5.643497
vertex 0.454913 0.808456 1.984537
vertex -0.471961 0.350123 3.672153
endloop
endfacet
facet normal -0.066643 0.985284 -0.157397
outer loop
vertex -0.058124 0.693032 5.643497
vertex -0.471961 0.350123 3.672153
vertex -1.420558 0.779894 6.764097
endloop
endfacet
facet normal -0.000095 0.999503 0.031516
outer loop
vertex 0.785726 0.315546 17.617563
vertex 0.454913 0.808456 1.984537
vertex -0.058124 0.693032 5.643497
endloop
endfacet
facet normal 0.084440 0.996103 0.025452
outer loop
vertex -1.420558 0.779894 6.764097
vertex 0.785726 0.315546 17.617563
vertex -0.058124 0.693032 5.643497
endloop
endfacet
facet normal 0.705819 0.708353 0.007398
outer loop
vertex 0.785726 0.315546 17.617563
vertex 0.988692 0.276606 1.982639
vertex 0.454913 0.808456 1.984537
endloop
endfacet
facet normal 0.054230 0.998026 0.031675
outer loop
vertex 0.785726 0.315546 17.617563
vertex -1.420558 0.779894 6.764097
vertex -0.804147 0.456905 15.885569
endloop
endfacet
facet normal 0.995823 -0.090357 0.013152
outer loop
vertex 0.785726 0.315546 17.617563
vertex 0.945173 -0.203039 1.982517
vertex 0.988692 0.276606 1.982639
endloop
endfacet
facet normal 0.037363 0.998188 0.047172
outer loop
vertex 1.462834 -0.403398 32.294640
vertex 0.785726 0.315546 17.617563
vertex -0.804147 0.456905 15.885569
endloop
endfacet
facet normal 0.959274 0.282478 0.000413
outer loop
vertex 0.941827 -0.212533 16.232664
vertex 0.945173 -0.203039 1.982517
vertex 0.785726 0.315546 17.617563
endloop
endfacet
facet normal 0.350916 0.935937 0.029657
outer loop
vertex 0.785726 0.315546 17.617563
vertex 1.462834 -0.403398 32.294640
vertex 2.016945 -0.611230 32.297043
endloop
endfacet
facet normal 0.913335 0.403991 -0.051099
outer loop
vertex 0.785726 0.315546 17.617563
vertex 2.016945 -0.611230 32.297043
vertex 0.941827 -0.212533 16.232664
endloop
endfacet
facet normal 0.204743 0.902109 -0.379842
outer loop
vertex -2.214607 0.350445 -2.019870
vertex -1.277824 0.801903 -0.442729
vertex -0.787102 0.334054 -1.289341
endloop
endfacet
facet normal 0.298438 0.855931 -0.422276
outer loop
vertex -4.206930 0.693111 -2.733352
vertex -1.277824 0.801903 -0.442729
vertex -2.214607 0.350445 -2.019870
endloop
endfacet
facet normal 0.170880 0.985284 -0.003958
outer loop
vertex -4.206930 0.693111 -2.733352
vertex -2.214607 0.350445 -2.019870
vertex -4.446582 0.727652 -4.481509
endloop
endfacet
facet normal -0.041353 0.998822 0.025404
outer loop
vertex -4.446582 0.727652 -4.481509
vertex -12.988715 0.477819 -8.563674
vertex -4.206930 0.693111 -2.733352
endloop
endfacet
facet normal -0.014611 0.999479 -0.028785
outer loop
vertex -14.043410 0.406980 -7.675350
vertex -1.277824 0.801903 -0.442729
vertex -4.206930 0.693111 -2.733352
endloop
endfacet
facet normal -0.043258 0.998664 0.028279
outer loop
vertex -12.988715 0.477819 -8.563674
vertex -14.043410 0.406980 -7.675350
vertex -4.206930 0.693111 -2.733352
endloop
endfacet
facet normal -0.364032 0.709163 0.603795
outer loop
vertex -1.277824 0.801903 -0.442729
vertex -14.043410 0.406980 -7.675350
vertex -1.537370 0.286473 0.006167
endloop
endfacet
facet normal -0.062274 0.998043 0.005650
outer loop
vertex -12.988715 0.477819 -8.563674
vertex -28.169394 -0.436305 -14.410281
vertex -14.043410 0.406980 -7.675350
endloop
endfacet
facet normal -0.007288 0.990686 -0.135971
outer loop
vertex -12.988715 0.477819 -8.563674
vertex -28.087980 -0.482204 -14.749063
vertex -28.169394 -0.436305 -14.410281
endloop
endfacet
facet normal -0.972764 -0.022898 -0.230663
outer loop
vertex -28.169394 -0.436305 -14.410281
vertex -28.087980 -0.482204 -14.749063
vertex -28.188202 -0.583585 -14.316330
endloop
endfacet
facet normal -0.391143 0.529935 0.752447
outer loop
vertex -28.188202 -0.583585 -14.316330
vertex -13.829163 -0.191415 -7.128304
vertex -28.169394 -0.436305 -14.410281
endloop
endfacet
facet normal -0.387702 0.542488 0.745248
outer loop
vertex -14.043410 0.406980 -7.675350
vertex -28.169394 -0.436305 -14.410281
vertex -13.829163 -0.191415 -7.128304
endloop
endfacet
facet normal -0.446118 0.511595 0.734336
outer loop
vertex -13.829163 -0.191415 -7.128304
vertex -1.537370 0.286473 0.006167
vertex -14.043410 0.406980 -7.675350
endloop
endfacet
facet normal -0.500546 -0.037573 0.864894
outer loop
vertex -1.528783 -0.211892 -0.010514
vertex -1.537370 0.286473 0.006167
vertex -13.829163 -0.191415 -7.128304
endloop
endfacet
facet normal -0.158427 -0.986025 -0.051527
outer loop
vertex 1.120879 -3.832593 0.777508
vertex 0.311476 -3.691746 0.570844
vertex -0.209125 -3.568155 -0.193553
endloop
endfacet
facet normal -0.158427 -0.986025 -0.051525
outer loop
vertex 0.311476 -3.691746 0.570844
vertex 0.138289 -3.693259 1.132306
vertex -0.209125 -3.568155 -0.193553
endloop
endfacet
facet normal -0.158427 -0.986026 -0.051524
outer loop
vertex 0.138289 -3.693259 1.132306
vertex 0.311476 -3.691746 0.570844
vertex 1.120879 -3.832593 0.777508
endloop
endfacet
facet normal 0.035057 -0.951061 -0.307007
outer loop
vertex 0.938628 -3.577828 -0.032528
vertex 0.631590 -3.655770 0.173863
vertex -0.209125 -3.568155 -0.193553
endloop
endfacet
facet normal 0.035057 -0.951062 -0.307006
outer loop
vertex 0.631590 -3.655770 0.173863
vertex 1.120879 -3.832593 0.777508
vertex -0.209125 -3.568155 -0.193553
endloop
endfacet
facet normal -0.496172 0.031675 0.867646
outer loop
vertex -0.314993 0.368429 2.231566
vertex -0.695888 1.318257 1.979073
vertex -1.373416 1.319622 1.591572
endloop
endfacet
facet normal -0.652411 -0.095164 0.751867
outer loop
vertex -1.615833 -2.003913 0.960560
vertex -0.543980 -0.185185 2.120828
vertex -1.373416 1.319622 1.591572
endloop
endfacet
facet normal -0.974791 -0.098028 -0.200431
outer loop
vertex -1.602208 -0.078854 -0.047229
vertex -1.565651 -0.272241 -0.130441
vertex -1.615833 -2.003913 0.960560
endloop
endfacet
facet normal -0.974791 -0.098029 -0.200432
outer loop
vertex -1.602208 -0.078854 -0.047229
vertex -1.615833 -2.003913 0.960560
vertex -1.694581 0.068069 0.330162
endloop
endfacet
facet normal -0.480000 -0.420110 0.770135
outer loop
vertex -1.615833 -2.003913 0.960560
vertex -0.558887 -2.249894 1.485137
vertex -0.046318 -1.088069 2.438382
endloop
endfacet
facet normal -0.480000 -0.420110 0.770135
outer loop
vertex -0.558887 -2.249894 1.485137
vertex -1.615833 -2.003913 0.960560
vertex 0.138289 -3.693259 1.132306
endloop
endfacet
facet normal -0.694895 -0.709839 0.115105
outer loop
vertex -0.209125 -3.568155 -0.193553
vertex 0.138289 -3.693259 1.132306
vertex -1.615833 -2.003913 0.960560
endloop
endfacet
facet normal -0.975280 0.029560 0.218985
outer loop
vertex -1.741829 1.311257 -0.048076
vertex -1.566469 0.174573 0.886349
vertex -1.373416 1.319622 1.591572
endloop
endfacet
facet normal -0.975281 0.029560 0.218985
outer loop
vertex -1.373416 1.319622 1.591572
vertex -1.566469 0.174573 0.886349
vertex -1.615833 -2.003913 0.960560
endloop
endfacet
facet normal -0.975280 0.029560 0.218985
outer loop
vertex -1.566469 0.174573 0.886349
vertex -1.694581 0.068069 0.330162
vertex -1.615833 -2.003913 0.960560
endloop
endfacet
facet normal -0.792682 -0.584143 -0.174448
outer loop
vertex -1.207501 -1.958285 -1.047664
vertex -0.942527 -2.567257 -0.212540
vertex -1.615833 -2.003913 0.960560
endloop
endfacet
facet normal -0.792683 -0.584142 -0.174448
outer loop
vertex -1.615833 -2.003913 0.960560
vertex -0.942527 -2.567257 -0.212540
vertex -0.209125 -3.568155 -0.193553
endloop
endfacet
facet normal -0.974791 -0.098029 -0.200431
outer loop
vertex -1.615833 -2.003913 0.960560
vertex -1.565651 -0.272241 -0.130441
vertex -1.207501 -1.958285 -1.047664
endloop
endfacet
facet normal -0.580326 0.005263 -0.814367
outer loop
vertex -0.855326 0.351914 -1.283697
vertex -1.218627 1.317269 -1.018566
vertex -0.196890 1.322580 -1.746631
endloop
endfacet
facet normal -0.264517 -0.122316 -0.956593
outer loop
vertex -1.207501 -1.958285 -1.047664
vertex -0.223278 -0.881494 -1.457507
vertex 0.930803 -2.129867 -1.617008
endloop
endfacet
facet normal 0.689314 -0.061927 -0.721811
outer loop
vertex 1.287287 1.306204 -1.571369
vertex 1.503242 -0.045811 -1.249141
vertex 0.930803 -2.129867 -1.617008
endloop
endfacet
facet normal 0.607984 -0.584590 -0.537224
outer loop
vertex 0.938628 -3.577828 -0.032528
vertex 0.930803 -2.129867 -1.617008
vertex 2.114550 -1.673211 -0.774265
endloop
endfacet
facet normal 0.987727 -0.059919 -0.144241
outer loop
vertex 2.231950 -0.632476 -0.402674
vertex 2.385345 -1.092774 0.838955
vertex 2.114550 -1.673211 -0.774265
endloop
endfacet
facet normal 0.987727 -0.059919 -0.144241
outer loop
vertex 2.385345 -1.092774 0.838955
vertex 2.231950 -0.632476 -0.402674
vertex 2.456448 1.357674 0.307904
endloop
endfacet
facet normal 0.730553 -0.586952 -0.348971
outer loop
vertex 1.120879 -3.832593 0.777508
vertex 0.938628 -3.577828 -0.032528
vertex 2.114550 -1.673211 -0.774265
endloop
endfacet
facet normal 0.907981 -0.419009 -0.001654
outer loop
vertex 2.114550 -1.673211 -0.774265
vertex 1.877002 -2.192399 0.347746
vertex 1.120879 -3.832593 0.777508
endloop
endfacet
facet normal 0.813643 -0.051241 0.579103
outer loop
vertex 1.439667 -1.220510 2.156338
vertex 2.385345 -1.092774 0.838955
vertex 1.717897 1.295931 1.988087
endloop
endfacet
facet normal 0.213284 0.041681 0.976101
outer loop
vertex 1.717897 1.295931 1.988087
vertex 0.935773 0.327062 2.200358
vertex 1.439667 -1.220510 2.156338
endloop
endfacet
facet normal 0.213283 0.041681 0.976101
outer loop
vertex 0.935773 0.327062 2.200358
vertex 1.717897 1.295931 1.988087
vertex -0.018360 1.316892 2.366574
endloop
endfacet
facet normal 0.238199 -0.475959 0.846595
outer loop
vertex 0.138289 -3.693259 1.132306
vertex 0.991596 -2.663809 1.470979
vertex 1.439667 -1.220510 2.156338
endloop
endfacet
facet normal 0.238199 -0.475960 0.846595
outer loop
vertex 1.120879 -3.832593 0.777508
vertex 0.991596 -2.663809 1.470979
vertex 0.138289 -3.693259 1.132306
endloop
endfacet
facet normal 0.188737 0.027115 0.981653
outer loop
vertex -0.046318 -1.088069 2.438382
vertex 0.532527 -0.586991 2.313249
vertex -0.040602 -0.596341 2.423700
endloop
endfacet
facet normal 0.188737 0.027116 0.981653
outer loop
vertex 0.532527 -0.586991 2.313249
vertex -0.046318 -1.088069 2.438382
vertex 1.439667 -1.220510 2.156338
endloop
endfacet
facet normal 0.129981 -0.436991 0.890025
outer loop
vertex 1.439667 -1.220510 2.156338
vertex -0.046318 -1.088069 2.438382
vertex 0.138289 -3.693259 1.132306
endloop
endfacet
facet normal -0.880233 0.001226 -0.474540
outer loop
vertex -1.217949 -0.305434 -1.024015
vertex -1.213166 -0.290525 -1.032849
vertex -1.207501 -1.958285 -1.047664
endloop
endfacet
facet normal -0.880235 0.001226 -0.474537
outer loop
vertex -1.326281 -0.694525 -0.824072
vertex -1.207501 -1.958285 -1.047664
vertex -1.422831 -0.640682 -0.644837
endloop
endfacet
facet normal -0.880234 0.001226 -0.474538
outer loop
vertex -1.207501 -1.958285 -1.047664
vertex -1.312607 -0.628157 -0.849264
vertex -1.217949 -0.305434 -1.024015
endloop
endfacet
facet normal -0.880235 0.001225 -0.474537
outer loop
vertex -1.741829 1.311257 -0.048076
vertex -1.526479 0.679744 -0.449168
vertex -1.610091 0.505156 -0.294523
endloop
endfacet
facet normal -0.880235 0.001227 -0.474537
outer loop
vertex -1.526479 0.679744 -0.449168
vertex -1.741829 1.311257 -0.048076
vertex -1.434848 0.769736 -0.618904
endloop
endfacet
facet normal 0.689314 -0.061927 -0.721811
outer loop
vertex 1.287287 1.306204 -1.571369
vertex 1.721557 0.546553 -1.091477
vertex 1.652748 0.442380 -1.148250
endloop
endfacet
facet normal 0.689314 -0.061928 -0.721811
outer loop
vertex 1.503242 -0.045811 -1.249141
vertex 1.565484 -0.300991 -1.167809
vertex 0.930803 -2.129867 -1.617008
endloop
endfacet
facet normal 0.580315 -0.001361 -0.814391
outer loop
vertex 1.929266 0.747273 -0.910340
vertex 2.119653 1.295884 -0.775592
vertex 2.118548 0.653142 -0.775305
endloop
endfacet
facet normal 0.580313 -0.001361 -0.814392
outer loop
vertex 0.930803 -2.129867 -1.617008
vertex 1.692391 -0.484846 -1.077070
vertex 1.871475 -0.590595 -0.949283
endloop
endfacet
facet normal 0.580314 -0.001361 -0.814391
outer loop
vertex 2.114550 -1.673211 -0.774265
vertex 1.871475 -0.590595 -0.949283
vertex 2.116382 -0.607039 -0.774742
endloop
endfacet
facet normal 0.954957 -0.001774 -0.296739
outer loop
vertex 2.231950 -0.632476 -0.402674
vertex 2.114550 -1.673211 -0.774265
vertex 2.116382 -0.607039 -0.774742
endloop
endfacet
facet normal 0.954957 -0.001775 -0.296741
outer loop
vertex 2.231950 -0.632476 -0.402674
vertex 2.192918 -0.623885 -0.528335
vertex 2.278120 -0.093092 -0.257314
endloop
endfacet
facet normal 0.213283 0.041681 0.976101
outer loop
vertex 0.974289 0.149441 2.199527
vertex 0.895470 -0.273445 2.234807
vertex 1.439667 -1.220510 2.156338
endloop
endfacet
facet normal 0.188738 0.027116 0.981653
outer loop
vertex 0.312179 0.741655 2.318913
vertex -0.018360 1.316892 2.366574
vertex 0.058837 0.595442 2.371660
endloop
endfacet
facet normal 0.188733 0.027116 0.981654
outer loop
vertex 0.058837 0.595442 2.371660
vertex -0.018360 1.316892 2.366574
vertex -0.027325 0.545699 2.389600
endloop
endfacet
facet normal 0.188737 0.027117 0.981653
outer loop
vertex 1.439667 -1.220510 2.156338
vertex 0.740102 -0.493276 2.270751
vertex 0.532527 -0.586991 2.313249
endloop
endfacet
facet normal 0.035056 -0.951061 -0.307007
outer loop
vertex 0.938628 -3.577828 -0.032528
vertex 1.120879 -3.832593 0.777508
vertex 0.631590 -3.655770 0.173863
endloop
endfacet
facet normal -0.496171 0.031674 0.867647
outer loop
vertex -1.373416 1.319622 1.591572
vertex -0.543980 -0.185185 2.120828
vertex -0.314993 0.368429 2.231566
endloop
endfacet
facet normal -0.496176 0.031675 0.867644
outer loop
vertex -0.306513 0.034972 2.248589
vertex -0.314993 0.368429 2.231566
vertex -0.543980 -0.185185 2.120828
endloop
endfacet
facet normal -0.496172 0.031674 0.867646
outer loop
vertex -0.018360 1.316892 2.366574
vertex -0.695888 1.318257 1.979073
vertex -0.314993 0.368429 2.231566
endloop
endfacet
facet normal -0.652411 -0.095164 0.751867
outer loop
vertex -0.046318 -1.088069 2.438382
vertex -0.543980 -0.185185 2.120828
vertex -1.615833 -2.003913 0.960560
endloop
endfacet
facet normal -0.480000 -0.420110 0.770135
outer loop
vertex -0.046318 -1.088069 2.438382
vertex -0.558887 -2.249894 1.485137
vertex 0.138289 -3.693259 1.132306
endloop
endfacet
facet normal -0.975280 0.029559 0.218985
outer loop
vertex -1.694581 0.068069 0.330162
vertex -1.566469 0.174573 0.886349
vertex -1.741829 1.311257 -0.048076
endloop
endfacet
facet normal -0.792683 -0.584142 -0.174447
outer loop
vertex -0.209125 -3.568155 -0.193553
vertex -0.942527 -2.567257 -0.212540
vertex -1.207501 -1.958285 -1.047664
endloop
endfacet
facet normal -0.580327 0.005263 -0.814367
outer loop
vertex -1.207501 -1.958285 -1.047664
vertex -0.869492 0.258989 -1.274203
vertex -0.196890 1.322580 -1.746631
endloop
endfacet
facet normal -0.580325 0.005263 -0.814368
outer loop
vertex -0.869492 0.258989 -1.274203
vertex -0.855326 0.351914 -1.283697
vertex -0.196890 1.322580 -1.746631
endloop
endfacet
facet normal -0.264516 -0.122316 -0.956593
outer loop
vertex -0.196890 1.322580 -1.746631
vertex -0.223278 -0.881494 -1.457507
vertex -1.207501 -1.958285 -1.047664
endloop
endfacet
facet normal -0.264517 -0.122316 -0.956593
outer loop
vertex 0.930803 -2.129867 -1.617008
vertex -0.223278 -0.881494 -1.457507
vertex -0.196890 1.322580 -1.746631
endloop
endfacet
facet normal 0.117284 0.001023 -0.993098
outer loop
vertex -0.196890 1.322580 -1.746631
vertex 1.287287 1.306204 -1.571369
vertex 0.930803 -2.129867 -1.617008
endloop
endfacet
facet normal -0.253662 -0.571396 -0.780488
outer loop
vertex -0.209125 -3.568155 -0.193553
vertex -1.207501 -1.958285 -1.047664
vertex 0.930803 -2.129867 -1.617008
endloop
endfacet
facet normal 0.088112 -0.735105 -0.672203
outer loop
vertex 0.938628 -3.577828 -0.032528
vertex -0.209125 -3.568155 -0.193553
vertex 0.930803 -2.129867 -1.617008
endloop
endfacet
facet normal 0.580314 -0.001361 -0.814392
outer loop
vertex 2.114550 -1.673211 -0.774265
vertex 0.930803 -2.129867 -1.617008
vertex 1.871475 -0.590595 -0.949283
endloop
endfacet
facet normal 0.954957 -0.001774 -0.296739
outer loop
vertex 2.119653 1.295884 -0.775592
vertex 2.456448 1.357674 0.307904
vertex 2.118548 0.653142 -0.775305
endloop
endfacet
facet normal 0.912932 0.060962 0.403533
outer loop
vertex 1.717897 1.295931 1.988087
vertex 2.385345 -1.092774 0.838955
vertex 2.212060 0.496877 0.990834
endloop
endfacet
facet normal 0.912932 0.060963 0.403534
outer loop
vertex 2.456448 1.357674 0.307904
vertex 2.212060 0.496877 0.990834
vertex 2.385345 -1.092774 0.838955
endloop
endfacet
facet normal 0.912932 0.060962 0.403533
outer loop
vertex 2.456448 1.357674 0.307904
vertex 1.717897 1.295931 1.988087
vertex 2.212060 0.496877 0.990834
endloop
endfacet
facet normal 0.907980 -0.419009 -0.001655
outer loop
vertex 1.120879 -3.832593 0.777508
vertex 1.877002 -2.192399 0.347746
vertex 2.385345 -1.092774 0.838955
endloop
endfacet
facet normal 0.907980 -0.419009 -0.001654
outer loop
vertex 2.114550 -1.673211 -0.774265
vertex 2.385345 -1.092774 0.838955
vertex 1.877002 -2.192399 0.347746
endloop
endfacet
facet normal 0.771925 -0.367882 0.518454
outer loop
vertex 2.385345 -1.092774 0.838955
vertex 1.611702 -2.080446 1.290004
vertex 1.120879 -3.832593 0.777508
endloop
endfacet
facet normal 0.771925 -0.367883 0.518453
outer loop
vertex 2.385345 -1.092774 0.838955
vertex 1.439667 -1.220510 2.156338
vertex 1.611702 -2.080446 1.290004
endloop
endfacet
facet normal 0.771925 -0.367882 0.518453
outer loop
vertex 1.120879 -3.832593 0.777508
vertex 1.611702 -2.080446 1.290004
vertex 1.439667 -1.220510 2.156338
endloop
endfacet
facet normal 0.213297 0.041683 0.976098
outer loop
vertex 1.439667 -1.220510 2.156338
vertex 0.935773 0.327062 2.200358
vertex 0.974289 0.149441 2.199527
endloop
endfacet
facet normal 0.238200 -0.475959 0.846595
outer loop
vertex 1.439667 -1.220510 2.156338
vertex 0.991596 -2.663809 1.470979
vertex 1.120879 -3.832593 0.777508
endloop
endfacet
facet normal -0.496172 0.031673 0.867647
outer loop
vertex -0.046318 -1.088069 2.438382
vertex -0.040602 -0.596341 2.423700
vertex -0.241649 -0.189245 2.293867
endloop
endfacet
facet normal -0.496173 0.031674 0.867646
outer loop
vertex -0.241649 -0.189245 2.293867
vertex -0.306513 0.034972 2.248589
vertex -0.543980 -0.185185 2.120828
endloop
endfacet
facet normal -0.496174 0.031674 0.867645
outer loop
vertex -0.241649 -0.189245 2.293867
vertex -0.543980 -0.185185 2.120828
vertex -0.046318 -1.088069 2.438382
endloop
endfacet
facet normal -0.496171 0.031674 0.867647
outer loop
vertex -0.027325 0.545699 2.389600
vertex -0.018360 1.316892 2.366574
vertex -0.314993 0.368429 2.231566
endloop
endfacet
facet normal -0.974791 -0.098029 -0.200431
outer loop
vertex -1.741829 1.311257 -0.048076
vertex -1.610091 0.505156 -0.294523
vertex -1.602698 -0.073844 -0.047295
endloop
endfacet
facet normal -0.974793 -0.098008 -0.200431
outer loop
vertex -1.602698 -0.073844 -0.047295
vertex -1.602208 -0.078854 -0.047229
vertex -1.694581 0.068069 0.330162
endloop
endfacet
facet normal -0.974791 -0.098029 -0.200432
outer loop
vertex -1.602698 -0.073844 -0.047295
vertex -1.694581 0.068069 0.330162
vertex -1.741829 1.311257 -0.048076
endloop
endfacet
facet normal -0.880235 0.001225 -0.474537
outer loop
vertex -1.434848 0.769736 -0.618904
vertex -1.741829 1.311257 -0.048076
vertex -1.218627 1.317269 -1.018566
endloop
endfacet
facet normal -0.880235 0.001226 -0.474537
outer loop
vertex -1.434848 0.769736 -0.618904
vertex -1.218627 1.317269 -1.018566
vertex -1.327514 0.655043 -0.818299
endloop
endfacet
facet normal -0.974791 -0.098029 -0.200432
outer loop
vertex -1.422831 -0.640682 -0.644837
vertex -1.207501 -1.958285 -1.047664
vertex -1.565651 -0.272241 -0.130441
endloop
endfacet
facet normal -0.880235 0.001226 -0.474537
outer loop
vertex -1.218627 1.317269 -1.018566
vertex -1.215995 0.542510 -1.025448
vertex -1.327514 0.655043 -0.818299
endloop
endfacet
facet normal 0.689314 -0.061927 -0.721811
outer loop
vertex 1.287287 1.306204 -1.571369
vertex 2.119653 1.295884 -0.775592
vertex 1.929266 0.747273 -0.910340
endloop
endfacet
facet normal 0.689314 -0.061927 -0.721811
outer loop
vertex 1.287287 1.306204 -1.571369
vertex 1.929266 0.747273 -0.910340
vertex 1.721557 0.546553 -1.091477
endloop
endfacet
facet normal -0.880237 0.001225 -0.474533
outer loop
vertex -1.326281 -0.694525 -0.824072
vertex -1.312607 -0.628157 -0.849264
vertex -1.207501 -1.958285 -1.047664
endloop
endfacet
facet normal -0.580326 0.005263 -0.814367
outer loop
vertex -1.215995 0.542510 -1.025448
vertex -1.218627 1.317269 -1.018566
vertex -0.855326 0.351914 -1.283697
endloop
endfacet
facet normal -0.580327 0.005263 -0.814367
outer loop
vertex -0.869492 0.258989 -1.274203
vertex -1.207501 -1.958285 -1.047664
vertex -1.213166 -0.290525 -1.032849
endloop
endfacet
facet normal 0.689314 -0.061927 -0.721811
outer loop
vertex 1.503242 -0.045811 -1.249141
vertex 1.287287 1.306204 -1.571369
vertex 1.652748 0.442380 -1.148250
endloop
endfacet
facet normal 0.580313 -0.001361 -0.814392
outer loop
vertex 0.930803 -2.129867 -1.617008
vertex 1.565484 -0.300991 -1.167809
vertex 1.692391 -0.484846 -1.077070
endloop
endfacet
facet normal 0.954957 -0.001774 -0.296739
outer loop
vertex 2.285146 0.406855 -0.237692
vertex 2.118548 0.653142 -0.775305
vertex 2.456448 1.357674 0.307904
endloop
endfacet
facet normal 0.954956 -0.001773 -0.296742
outer loop
vertex 2.456448 1.357674 0.307904
vertex 2.231950 -0.632476 -0.402674
vertex 2.278120 -0.093092 -0.257314
endloop
endfacet
facet normal 0.954957 -0.001773 -0.296739
outer loop
vertex 2.278120 -0.093092 -0.257314
vertex 2.285146 0.406855 -0.237692
vertex 2.456448 1.357674 0.307904
endloop
endfacet
facet normal 0.213284 0.041681 0.976101
outer loop
vertex 0.312179 0.741655 2.318913
vertex 0.523389 0.737213 2.272952
vertex -0.018360 1.316892 2.366574
endloop
endfacet
facet normal 0.213256 0.041664 0.976108
outer loop
vertex 0.523389 0.737213 2.272952
vertex 0.935773 0.327062 2.200358
vertex -0.018360 1.316892 2.366574
endloop
endfacet
facet normal 0.188737 0.027116 0.981653
outer loop
vertex 1.439667 -1.220510 2.156338
vertex 0.895470 -0.273445 2.234807
vertex 0.740102 -0.493276 2.270751
endloop
endfacet
endsolid Exported from Blender-2.92.0
