solid AssimpScene
 facet normal -0.427148 -0.397892 0.811928
  outer loop
  vertex -0.46111 -4.94928 101.343
  vertex -1.44175 -3.81842 101.382
  vertex -1.05544 -4.78901 101.109
  endloop
 endfacet
 facet normal 0.714833 0.0878355 -0.693757
  outer loop
  vertex 0.824789 -4.40682 97.4729
  vertex 0.494679 -3.57828 97.2377
  vertex 1.39386 -2.60288 98.2877
  endloop
 endfacet
 facet normal 0.615663 0.478313 -0.626239
  outer loop
  vertex -0.858467 -2.65589 100.847
  vertex -0.398687 -2.67536 101.284
  vertex 0.903035 -4.19622 101.403
  endloop
 endfacet
 facet normal 0.248514 -0.380023 -0.890968
  outer loop
  vertex -0.46111 -4.94928 101.343
  vertex -1.05544 -4.78901 101.109
  vertex 0.903035 -4.19622 101.403
  endloop
 endfacet
 facet normal -0.634935 -0.0361259 -0.771721
  outer loop
  vertex -1.05544 -4.78901 101.109
  vertex -1.44175 -3.81842 101.382
  vertex -0.858467 -2.65589 100.847
  endloop
 endfacet
 facet normal -0.557802 0.561012 0.611656
  outer loop
  vertex -1.44175 -3.81842 101.382
  vertex -0.398687 -2.67536 101.284
  vertex -0.858467 -2.65589 100.847
  endloop
 endfacet
 facet normal -0.158429 -0.986025 -0.0515258
  outer loop
  vertex -0.939615 -7.53789 98.6548
  vertex 0.390389 -7.80233 99.6259
  vertex -0.5922 -7.663 99.9807
  endloop
 endfacet
 facet normal 0.0350603 -0.951062 -0.307006
  outer loop
  vertex 0.208138 -7.54756 98.8158
  vertex 0.390389 -7.80233 99.6259
  vertex -0.939615 -7.53789 98.6548
  endloop
 endfacet
 facet normal 0.427797 -0.367879 0.825624
  outer loop
  vertex -2.45736 -3.41512 99.1705
  vertex -2.71944 -4.48689 98.8287
  vertex -2.05871 -5.27762 98.1341
  endloop
 endfacet
 facet normal -0.950745 0.276908 -0.139305
  outer loop
  vertex -2.71944 -4.48689 98.8287
  vertex -2.45736 -3.41512 99.1705
  vertex -2.07081 -2.47726 98.3966
  endloop
 endfacet
 facet normal -0.00530024 0.999986 -0.000142208
  outer loop
  vertex -0.92738 -2.64716 97.1017
  vertex -1.94912 -2.65247 97.8298
  vertex -1.23865 -2.64864 98.2588
  endloop
 endfacet
 facet normal 0.000357025 0.999999 0.00137851
  outer loop
  vertex -0.293608 -2.64844 97.8657
  vertex -0.92738 -2.64716 97.1017
  vertex -1.23865 -2.64864 98.2588
  endloop
 endfacet
 facet normal 0.0120109 0.999894 -0.00828926
  outer loop
  vertex 0.556796 -2.66353 97.277
  vertex -0.92738 -2.64716 97.1017
  vertex -0.293608 -2.64844 97.8657
  endloop
 endfacet
 facet normal 0.00827836 0.999872 -0.0136816
  outer loop
  vertex 0.608091 -2.64864 98.3963
  vertex 0.556796 -2.66353 97.277
  vertex -0.293608 -2.64844 97.8657
  endloop
 endfacet
 facet normal 0.0262577 0.99955 -0.0145013
  outer loop
  vertex 1.38916 -2.67385 98.0728
  vertex 0.556796 -2.66353 97.277
  vertex 0.608091 -2.64864 98.3963
  endloop
 endfacet
 facet normal 0.0281653 0.999554 -0.00989642
  outer loop
  vertex 1.38916 -2.67385 98.0728
  vertex 0.608091 -2.64864 98.3963
  vertex 0.806843 -2.6406 99.774
  endloop
 endfacet
 facet normal -0.057252 0.997594 -0.0390949
  outer loop
  vertex 1.72596 -2.61206 99.1562
  vertex 1.38916 -2.67385 98.0728
  vertex 0.806843 -2.6406 99.774
  endloop
 endfacet
 facet normal -0.0090104 0.999422 0.032765
  outer loop
  vertex 0.987407 -2.6738 100.836
  vertex 1.72596 -2.61206 99.1562
  vertex 0.806843 -2.6406 99.774
  endloop
 endfacet
 facet normal 0.00861318 0.99952 0.0297737
  outer loop
  vertex 0.987407 -2.6738 100.836
  vertex 0.806843 -2.6406 99.774
  vertex -0.471527 -2.64903 100.427
  endloop
 endfacet
 facet normal 0.0142167 0.99985 0.00984503
  outer loop
  vertex 0.987407 -2.6738 100.836
  vertex -0.471527 -2.64903 100.427
  vertex -0.74885 -2.65284 101.215
  endloop
 endfacet
 facet normal -0.00281708 0.999989 0.00385303
  outer loop
  vertex -1.63936 -2.6491 99.5919
  vertex -0.74885 -2.65284 101.215
  vertex -0.471527 -2.64903 100.427
  endloop
 endfacet
 facet normal 0.00101261 0.999998 0.00175248
  outer loop
  vertex -0.74885 -2.65284 101.215
  vertex -1.63936 -2.6491 99.5919
  vertex -2.10391 -2.65011 100.44
  endloop
 endfacet
 facet normal -0.00815401 0.999961 -0.00326891
  outer loop
  vertex -1.63936 -2.6491 99.5919
  vertex -2.47232 -2.65848 98.8003
  vertex -2.10391 -2.65011 100.44
  endloop
 endfacet
 facet normal -0.0113378 0.999936 8.09273e-05
  outer loop
  vertex -2.47232 -2.65848 98.8003
  vertex -1.63936 -2.6491 99.5919
  vertex -1.94912 -2.65247 97.8298
  endloop
 endfacet
 facet normal -0.00473443 0.999988 -0.00107978
  outer loop
  vertex -1.94912 -2.65247 97.8298
  vertex -1.63936 -2.6491 99.5919
  vertex -1.23865 -2.64864 98.2588
  endloop
 endfacet
 facet normal -0.496165 0.0316747 0.86765
  outer loop
  vertex -2.10391 -2.65011 100.44
  vertex -0.776809 -5.05781 101.287
  vertex -0.74885 -2.65284 101.215
  endloop
 endfacet
 facet normal -0.652412 -0.095164 0.751866
  outer loop
  vertex -2.10391 -2.65011 100.44
  vertex -2.34632 -5.97365 99.8089
  vertex -0.776809 -5.05781 101.287
  endloop
 endfacet
 facet normal -0.480003 -0.420109 0.770133
  outer loop
  vertex -0.776809 -5.05781 101.287
  vertex -2.34632 -5.97365 99.8089
  vertex -0.5922 -7.663 99.9807
  endloop
 endfacet
 facet normal -0.694896 -0.709838 0.115106
  outer loop
  vertex -0.5922 -7.663 99.9807
  vertex -2.34632 -5.97365 99.8089
  vertex -0.939615 -7.53789 98.6548
  endloop
 endfacet
 facet normal -0.975281 0.0295592 0.218983
  outer loop
  vertex -2.47232 -2.65848 98.8003
  vertex -2.34632 -5.97365 99.8089
  vertex -2.10391 -2.65011 100.44
  endloop
 endfacet
 facet normal -0.792682 -0.584143 -0.174448
  outer loop
  vertex -2.34632 -5.97365 99.8089
  vertex -1.93799 -5.92802 97.8007
  vertex -0.939615 -7.53789 98.6548
  endloop
 endfacet
 facet normal -0.974791 -0.0980298 -0.200433
  outer loop
  vertex -2.34632 -5.97365 99.8089
  vertex -2.47232 -2.65848 98.8003
  vertex -1.93799 -5.92802 97.8007
  endloop
 endfacet
 facet normal -0.880235 0.00122562 -0.474536
  outer loop
  vertex -1.94912 -2.65247 97.8298
  vertex -1.93799 -5.92802 97.8007
  vertex -2.47232 -2.65848 98.8003
  endloop
 endfacet
 facet normal -0.580328 0.00526326 -0.814366
  outer loop
  vertex -1.93799 -5.92802 97.8007
  vertex -1.94912 -2.65247 97.8298
  vertex -0.92738 -2.64716 97.1017
  endloop
 endfacet
 facet normal -0.264515 -0.122316 -0.956593
  outer loop
  vertex -1.93799 -5.92802 97.8007
  vertex -0.92738 -2.64716 97.1017
  vertex 0.200313 -6.0996 97.2313
  endloop
 endfacet
 facet normal 0.117284 0.00102279 -0.993098
  outer loop
  vertex 0.200313 -6.0996 97.2313
  vertex -0.92738 -2.64716 97.1017
  vertex 0.556796 -2.66353 97.277
  endloop
 endfacet
 facet normal -0.25366 -0.571396 -0.780489
  outer loop
  vertex 0.200313 -6.0996 97.2313
  vertex -0.939615 -7.53789 98.6548
  vertex -1.93799 -5.92802 97.8007
  endloop
 endfacet
 facet normal 0.689304 -0.061928 -0.72182
  outer loop
  vertex 1.38916 -2.67385 98.0728
  vertex 0.200313 -6.0996 97.2313
  vertex 0.556796 -2.66353 97.277
  endloop
 endfacet
 facet normal 0.0881011 -0.735106 -0.672204
  outer loop
  vertex -0.939615 -7.53789 98.6548
  vertex 0.200313 -6.0996 97.2313
  vertex 0.208138 -7.54756 98.8158
  endloop
 endfacet
 facet normal 0.580317 -0.00136134 -0.81439
  outer loop
  vertex 0.200313 -6.0996 97.2313
  vertex 1.38916 -2.67385 98.0728
  vertex 1.38406 -5.64295 98.0741
  endloop
 endfacet
 facet normal 0.607989 -0.584587 -0.537222
  outer loop
  vertex 1.38406 -5.64295 98.0741
  vertex 0.208138 -7.54756 98.8158
  vertex 0.200313 -6.0996 97.2313
  endloop
 endfacet
 facet normal 0.816616 -0.577182 -0.000192796
  outer loop
  vertex 0.110143 -4.70576 101.327
  vertex 0.450976 -4.22353 101.326
  vertex 0.446793 -4.2354 119.139
  endloop
 endfacet
 facet normal 0.26607 -0.963737 0.0204202
  outer loop
  vertex 0.446793 -4.2354 119.139
  vertex -0.422693 -4.47294 119.258
  vertex 0.110143 -4.70576 101.327
  endloop
 endfacet
 facet normal 0.258083 -0.965243 -0.0412284
  outer loop
  vertex 0.446793 -4.2354 119.139
  vertex 1.79069 -4.73377 139.22
  vertex -0.422693 -4.47294 119.258
  endloop
 endfacet
 facet normal -0.351159 -0.935935 0.0267071
  outer loop
  vertex 1.09805 -4.47398 139.217
  vertex -0.422693 -4.47294 119.258
  vertex 1.79069 -4.73377 139.22
  endloop
 endfacet
 facet normal 0.0189186 -0.999729 0.013543
  outer loop
  vertex 0.110143 -4.70576 101.327
  vertex -0.422693 -4.47294 119.258
  vertex -0.858243 -4.72405 101.329
  endloop
 endfacet
 facet normal -0.644789 -0.762783 0.0490888
  outer loop
  vertex 1.09805 -4.47398 139.217
  vertex -1.73567 -3.3986 118.705
  vertex -0.422693 -4.47294 119.258
  endloop
 endfacet
 facet normal -0.956896 -0.286473 -0.0477912
  outer loop
  vertex -1.20313 -3.57159 101.326
  vertex -0.858243 -4.72405 101.329
  vertex -1.32044 -3.53208 103.439
  endloop
 endfacet
 facet normal -0.63855 -0.769276 0.0216254
  outer loop
  vertex -1.26224 -4.14643 106.082
  vertex -0.422693 -4.47294 119.258
  vertex -1.73567 -3.3986 118.705
  endloop
 endfacet
 facet normal -0.701045 -0.712605 0.0270121
  outer loop
  vertex -0.858243 -4.72405 101.329
  vertex -0.422693 -4.47294 119.258
  vertex -1.26224 -4.14643 106.082
  endloop
 endfacet
 facet normal -0.956178 -0.289129 -0.0461339
  outer loop
  vertex -1.32044 -3.53208 103.439
  vertex -0.858243 -4.72405 101.329
  vertex -1.26224 -4.14643 106.082
  endloop
 endfacet
 facet normal -0.66915 -0.742887 0.0189143
  outer loop
  vertex -1.73567 -3.3986 118.705
  vertex -2.50619 -2.99487 107.303
  vertex -1.26224 -4.14643 106.082
  endloop
 endfacet
 facet normal -0.741714 -0.656727 -0.136271
  outer loop
  vertex -2.50619 -2.99487 107.303
  vertex -1.32044 -3.53208 103.439
  vertex -1.26224 -4.14643 106.082
  endloop
 endfacet
 facet normal -0.391528 -0.61018 -0.688757
  outer loop
  vertex 15.9003 -4.18797 88.9071
  vertex 1.27078 -4.70096 97.6778
  vertex 1.0865 -4.22299 97.3591
  endloop
 endfacet
 facet normal -0.238513 -0.861511 -0.448229
  outer loop
  vertex 1.27078 -4.70096 97.6778
  vertex 15.9003 -4.18797 88.9071
  vertex 16.9726 -4.54429 89.0214
  endloop
 endfacet
 facet normal -0.262459 -0.900795 -0.345955
  outer loop
  vertex 15.9003 -4.18797 88.9071
  vertex 33.2487 -4.75977 77.2346
  vertex 16.9726 -4.54429 89.0214
  endloop
 endfacet
 facet normal 0.223094 -0.91907 0.324868
  outer loop
  vertex 33.5827 -4.46699 77.8335
  vertex 16.9726 -4.54429 89.0214
  vertex 33.2487 -4.75977 77.2346
  endloop
 endfacet
 facet normal -0.0236105 -0.997865 -0.0608855
  outer loop
  vertex 1.27078 -4.70096 97.6778
  vertex 16.9726 -4.54429 89.0214
  vertex 1.70618 -4.75716 98.4301
  endloop
 endfacet
 facet normal 0.3619 -0.765504 0.532007
  outer loop
  vertex 33.5827 -4.46699 77.8335
  vertex 17.3654 -3.38816 90.4178
  vertex 16.9726 -4.54429 89.0214
  endloop
 endfacet
 facet normal 0.411113 -0.371666 0.832377
  outer loop
  vertex 1.70618 -4.75716 98.4301
  vertex 4.06752 -3.51399 97.8189
  vertex 1.94714 -3.54954 98.8503
  endloop
 endfacet
 facet normal 0.342511 -0.76873 0.54013
  outer loop
  vertex 6.94674 -4.2694 95.7703
  vertex 16.9726 -4.54429 89.0214
  vertex 17.3654 -3.38816 90.4178
  endloop
 endfacet
 facet normal 0.350181 -0.757432 0.551063
  outer loop
  vertex 1.70618 -4.75716 98.4301
  vertex 16.9726 -4.54429 89.0214
  vertex 6.94674 -4.2694 95.7703
  endloop
 endfacet
 facet normal 0.437497 -0.447557 0.779929
  outer loop
  vertex 6.94674 -4.2694 95.7703
  vertex 4.06752 -3.51399 97.8189
  vertex 1.70618 -4.75716 98.4301
  endloop
 endfacet
 facet normal 0.336422 -0.780937 0.526268
  outer loop
  vertex 17.3654 -3.38816 90.4178
  vertex 7.79606 -3.07662 96.9973
  vertex 6.94674 -4.2694 95.7703
  endloop
 endfacet
 facet normal 0.221885 -0.771461 0.596335
  outer loop
  vertex 7.79606 -3.07662 96.9973
  vertex 4.06752 -3.51399 97.8189
  vertex 6.94674 -4.2694 95.7703
  endloop
 endfacet
 facet normal -0.4888 -0.161141 -0.857384
  outer loop
  vertex 1.0865 -4.22299 97.3591
  vertex 1.04678 -3.72912 97.289
  vertex 15.9003 -4.18797 88.9071
  endloop
 endfacet
 facet normal -0.487976 0.0804036 -0.869146
  outer loop
  vertex 15.8666 -3.74339 88.9672
  vertex 15.9003 -4.18797 88.9071
  vertex 1.04678 -3.72912 97.289
  endloop
 endfacet
 facet normal -0.555285 0.0698467 -0.828722
  outer loop
  vertex 15.8666 -3.74339 88.9672
  vertex 33.2487 -4.75977 77.2346
  vertex 15.9003 -4.18797 88.9071
  endloop
 endfacet
 facet normal -0.38217 0.623933 -0.681655
  outer loop
  vertex 1.33488 -3.01093 97.7848
  vertex 15.8666 -3.74339 88.9672
  vertex 1.04678 -3.72912 97.289
  endloop
 endfacet
 facet normal -0.271769 0.836893 -0.475134
  outer loop
  vertex 15.7119 -3.34991 89.7487
  vertex 33.2487 -4.75977 77.2346
  vertex 15.8666 -3.74339 88.9672
  endloop
 endfacet
 facet normal -0.24514 0.845579 -0.474238
  outer loop
  vertex 15.7119 -3.34991 89.7487
  vertex 15.8666 -3.74339 88.9672
  vertex 1.33488 -3.01093 97.7848
  endloop
 endfacet
 facet normal -0.176579 0.919556 -0.351051
  outer loop
  vertex 15.7119 -3.34991 89.7487
  vertex 33.5827 -4.46699 77.8335
  vertex 33.2487 -4.75977 77.2346
  endloop
 endfacet
 facet normal 0.0379523 0.998605 -0.036699
  outer loop
  vertex 17.3654 -3.38816 90.4178
  vertex 33.5827 -4.46699 77.8335
  vertex 15.7119 -3.34991 89.7487
  endloop
 endfacet
 facet normal 0.0235066 0.999723 -0.000936671
  outer loop
  vertex 15.7119 -3.34991 89.7487
  vertex 6.32075 -3.12304 96.2218
  vertex 17.3654 -3.38816 90.4178
  endloop
 endfacet
 facet normal 0.0210823 0.999768 -0.00445519
  outer loop
  vertex 6.32075 -3.12304 96.2218
  vertex 15.7119 -3.34991 89.7487
  vertex 1.33488 -3.01093 97.7848
  endloop
 endfacet
 facet normal -0.0037176 0.998604 -0.0526904
  outer loop
  vertex 7.79606 -3.07662 96.9973
  vertex 17.3654 -3.38816 90.4178
  vertex 6.32075 -3.12304 96.2218
  endloop
 endfacet
 facet normal -0.0909704 0.989326 0.113835
  outer loop
  vertex 6.32075 -3.12304 96.2218
  vertex 4.06752 -3.51399 97.8189
  vertex 7.79606 -3.07662 96.9973
  endloop
 endfacet
 facet normal 0.157411 0.88476 0.43866
  outer loop
  vertex 4.06752 -3.51399 97.8189
  vertex 6.32075 -3.12304 96.2218
  vertex 1.33488 -3.01093 97.7848
  endloop
 endfacet
 facet normal 0.163873 0.915096 0.368436
  outer loop
  vertex 1.94714 -3.54954 98.8503
  vertex 4.06752 -3.51399 97.8189
  vertex 1.33488 -3.01093 97.7848
  endloop
 endfacet
 facet normal 0.374052 -0.558632 -0.74028
  outer loop
  vertex -3.49875 -3.53168 96.3235
  vertex -1.75753 -3.55217 97.2188
  vertex -2.22562 -4.90336 98.0019
  endloop
 endfacet
 facet normal 0.718874 -0.160412 -0.676379
  outer loop
  vertex -2.22562 -4.90336 98.0019
  vertex -6.28872 -3.06017 93.2465
  vertex -3.49875 -3.53168 96.3235
  endloop
 endfacet
 facet normal 0.295195 -0.778464 -0.553944
  outer loop
  vertex -17.1978 -3.50377 88.0565
  vertex -6.28872 -3.06017 93.2465
  vertex -2.22562 -4.90336 98.0019
  endloop
 endfacet
 facet normal 0.429155 -0.165901 -0.887864
  outer loop
  vertex -16.9664 -3.37246 88.1438
  vertex -6.28872 -3.06017 93.2465
  vertex -17.1978 -3.50377 88.0565
  endloop
 endfacet
 facet normal 0.381632 -0.0592115 -0.922416
  outer loop
  vertex -17.1978 -3.50377 88.0565
  vertex -35.8405 -4.57249 80.412
  vertex -16.9664 -3.37246 88.1438
  endloop
 endfacet
 facet normal 0.276881 -0.801753 -0.52965
  outer loop
  vertex -17.3879 -4.56688 89.5663
  vertex -17.1978 -3.50377 88.0565
  vertex -2.22562 -4.90336 98.0019
  endloop
 endfacet
 facet normal 0.264524 -0.803892 -0.532714
  outer loop
  vertex -35.8405 -4.57249 80.412
  vertex -17.1978 -3.50377 88.0565
  vertex -17.3879 -4.56688 89.5663
  endloop
 endfacet
 facet normal -0.296416 -0.813514 0.500333
  outer loop
  vertex -2.68463 -4.2346 98.8173
  vertex -17.3879 -4.56688 89.5663
  vertex -2.22562 -4.90336 98.0019
  endloop
 endfacet
 facet normal 0.101758 -0.973559 -0.20452
  outer loop
  vertex -35.8405 -4.57249 80.412
  vertex -17.3879 -4.56688 89.5663
  vertex -35.9657 -4.69922 80.9529
  endloop
 endfacet
 facet normal -0.246329 -0.872087 0.422831
  outer loop
  vertex -17.3879 -4.56688 89.5663
  vertex -2.68463 -4.2346 98.8173
  vertex -18.0169 -4.209 89.938
  endloop
 endfacet
 facet normal -0.211153 -0.857801 0.468606
  outer loop
  vertex -18.0169 -4.209 89.938
  vertex -35.9657 -4.69922 80.9529
  vertex -17.3879 -4.56688 89.5663
  endloop
 endfacet
 facet normal 0.954957 -0.00177375 -0.296737
  outer loop
  vertex 1.38406 -5.64295 98.0741
  vertex 1.38916 -2.67385 98.0728
  vertex 1.72596 -2.61206 99.1562
  endloop
 endfacet
 facet normal 0.987727 -0.0599196 -0.144242
  outer loop
  vertex 1.38406 -5.64295 98.0741
  vertex 1.72596 -2.61206 99.1562
  vertex 1.65486 -5.06251 99.6873
  endloop
 endfacet
 facet normal 0.912933 0.0609622 0.403531
  outer loop
  vertex 0.987407 -2.6738 100.836
  vertex 1.65486 -5.06251 99.6873
  vertex 1.72596 -2.61206 99.1562
  endloop
 endfacet
 facet normal 0.730556 -0.586948 -0.34897
  outer loop
  vertex 0.208138 -7.54756 98.8158
  vertex 1.38406 -5.64295 98.0741
  vertex 0.390389 -7.80233 99.6259
  endloop
 endfacet
 facet normal 0.907981 -0.419008 -0.0016543
  outer loop
  vertex 1.65486 -5.06251 99.6873
  vertex 0.390389 -7.80233 99.6259
  vertex 1.38406 -5.64295 98.0741
  endloop
 endfacet
 facet normal 0.813643 -0.0512414 0.579102
  outer loop
  vertex 0.987407 -2.6738 100.836
  vertex 0.709176 -5.19025 101.005
  vertex 1.65486 -5.06251 99.6873
  endloop
 endfacet
 facet normal 0.771922 -0.367885 0.518457
  outer loop
  vertex 0.390389 -7.80233 99.6259
  vertex 1.65486 -5.06251 99.6873
  vertex 0.709176 -5.19025 101.005
  endloop
 endfacet
 facet normal 0.213279 0.0416811 0.976102
  outer loop
  vertex 0.709176 -5.19025 101.005
  vertex 0.987407 -2.6738 100.836
  vertex -0.74885 -2.65284 101.215
  endloop
 endfacet
 facet normal 0.238203 -0.475959 0.846595
  outer loop
  vertex 0.709176 -5.19025 101.005
  vertex -0.5922 -7.663 99.9807
  vertex 0.390389 -7.80233 99.6259
  endloop
 endfacet
 facet normal 0.188734 0.0271163 0.981654
  outer loop
  vertex -0.74885 -2.65284 101.215
  vertex -0.776809 -5.05781 101.287
  vertex 0.709176 -5.19025 101.005
  endloop
 endfacet
 facet normal 0.129988 -0.43699 0.890024
  outer loop
  vertex -0.5922 -7.663 99.9807
  vertex 0.709176 -5.19025 101.005
  vertex -0.776809 -5.05781 101.287
  endloop
 endfacet
 facet normal -0.506382 0.861174 -0.0442329
  outer loop
  vertex -1.20313 -3.57159 101.326
  vertex -1.32044 -3.53208 103.439
  vertex -0.161848 -2.95917 101.329
  endloop
 endfacet
 facet normal -0.505671 0.861618 -0.043722
  outer loop
  vertex -0.803145 -3.10345 105.903
  vertex -0.161848 -2.95917 101.329
  vertex -1.32044 -3.53208 103.439
  endloop
 endfacet
 facet normal -0.0666431 0.985284 -0.157397
  outer loop
  vertex -0.803145 -3.10345 105.903
  vertex -1.32044 -3.53208 103.439
  vertex -2.50619 -2.99487 107.303
  endloop
 endfacet
 facet normal -9.55642e-05 0.999503 0.0315164
  outer loop
  vertex 0.251668 -3.5753 120.87
  vertex -0.161848 -2.95917 101.329
  vertex -0.803145 -3.10345 105.903
  endloop
 endfacet
 facet normal 0.0844402 0.996104 0.0254518
  outer loop
  vertex -2.50619 -2.99487 107.303
  vertex 0.251668 -3.5753 120.87
  vertex -0.803145 -3.10345 105.903
  endloop
 endfacet
 facet normal 0.705819 0.708353 0.00739845
  outer loop
  vertex 0.251668 -3.5753 120.87
  vertex 0.505375 -3.62398 101.327
  vertex -0.161848 -2.95917 101.329
  endloop
 endfacet
 facet normal 0.0542306 0.998026 0.031675
  outer loop
  vertex 0.251668 -3.5753 120.87
  vertex -2.50619 -2.99487 107.303
  vertex -1.73567 -3.3986 118.705
  endloop
 endfacet
 facet normal 0.995823 -0.0903567 0.0131524
  outer loop
  vertex 0.251668 -3.5753 120.87
  vertex 0.450976 -4.22353 101.326
  vertex 0.505375 -3.62398 101.327
  endloop
 endfacet
 facet normal 0.0373622 0.998188 0.0471717
  outer loop
  vertex 1.09805 -4.47398 139.217
  vertex 0.251668 -3.5753 120.87
  vertex -1.73567 -3.3986 118.705
  endloop
 endfacet
 facet normal 0.959274 0.282478 0.00041344
  outer loop
  vertex 0.446793 -4.2354 119.139
  vertex 0.450976 -4.22353 101.326
  vertex 0.251668 -3.5753 120.87
  endloop
 endfacet
 facet normal 0.350915 0.935938 0.0296571
  outer loop
  vertex 0.251668 -3.5753 120.87
  vertex 1.09805 -4.47398 139.217
  vertex 1.79069 -4.73377 139.22
  endloop
 endfacet
 facet normal 0.913335 0.40399 -0.0510988
  outer loop
  vertex 0.251668 -3.5753 120.87
  vertex 1.79069 -4.73377 139.22
  vertex 0.446793 -4.2354 119.139
  endloop
 endfacet
 facet normal 0.205655 0.902121 -0.37932
  outer loop
  vertex -3.49875 -3.53168 96.3235
  vertex -2.37094 -2.96736 98.2771
  vertex -1.75753 -3.55217 97.2188
  endloop
 endfacet
 facet normal 0.297746 0.85749 -0.419593
  outer loop
  vertex -5.98915 -3.10335 95.4317
  vertex -2.37094 -2.96736 98.2771
  vertex -3.49875 -3.53168 96.3235
  endloop
 endfacet
 facet normal 0.170878 0.985284 -0.00395804
  outer loop
  vertex -5.98915 -3.10335 95.4317
  vertex -3.49875 -3.53168 96.3235
  vertex -6.28872 -3.06017 93.2465
  endloop
 endfacet
 facet normal -0.041353 0.998822 0.0254043
  outer loop
  vertex -6.28872 -3.06017 93.2465
  vertex -16.9664 -3.37246 88.1438
  vertex -5.98915 -3.10335 95.4317
  endloop
 endfacet
 facet normal -0.014051 0.999454 -0.029898
  outer loop
  vertex -18.2848 -3.46101 89.2542
  vertex -2.37094 -2.96736 98.2771
  vertex -5.98915 -3.10335 95.4317
  endloop
 endfacet
 facet normal -0.0432576 0.998664 0.0282784
  outer loop
  vertex -16.9664 -3.37246 88.1438
  vertex -18.2848 -3.46101 89.2542
  vertex -5.98915 -3.10335 95.4317
  endloop
 endfacet
 facet normal -0.364264 0.70916 0.603658
  outer loop
  vertex -2.37094 -2.96736 98.2771
  vertex -18.2848 -3.46101 89.2542
  vertex -2.69537 -3.61165 98.8382
  endloop
 endfacet
 facet normal -0.0622745 0.998043 0.00565049
  outer loop
  vertex -16.9664 -3.37246 88.1438
  vertex -35.9422 -4.51512 80.8355
  vertex -18.2848 -3.46101 89.2542
  endloop
 endfacet
 facet normal -0.00728783 0.990686 -0.135972
  outer loop
  vertex -16.9664 -3.37246 88.1438
  vertex -35.8405 -4.57249 80.412
  vertex -35.9422 -4.51512 80.8355
  endloop
 endfacet
 facet normal -0.972761 -0.0229576 -0.230671
  outer loop
  vertex -35.9422 -4.51512 80.8355
  vertex -35.8405 -4.57249 80.412
  vertex -35.9657 -4.69922 80.9529
  endloop
 endfacet
 facet normal -0.391143 0.529935 0.752447
  outer loop
  vertex -35.9657 -4.69922 80.9529
  vertex -18.0169 -4.209 89.938
  vertex -35.9422 -4.51512 80.8355
  endloop
 endfacet
 facet normal -0.387701 0.542488 0.745248
  outer loop
  vertex -18.2848 -3.46101 89.2542
  vertex -35.9422 -4.51512 80.8355
  vertex -18.0169 -4.209 89.938
  endloop
 endfacet
 facet normal -0.446467 0.511401 0.734259
  outer loop
  vertex -18.0169 -4.209 89.938
  vertex -2.69537 -3.61165 98.8382
  vertex -18.2848 -3.46101 89.2542
  endloop
 endfacet
 facet normal -0.500848 -0.0375734 0.864719
  outer loop
  vertex -2.68463 -4.2346 98.8173
  vertex -2.69537 -3.61165 98.8382
  vertex -18.0169 -4.209 89.938
  endloop
 endfacet
endsolid AssimpScene
